<svg width="230" height="156" viewBox="0 0 230 156" fill="none" xmlns="http://www.w3.org/2000/svg">
<path d="M81.2667 0.983053C78.7333 1.64972 74.6 4.18305 72.2 6.44972C68.3333 10.1831 67.6667 10.4497 66.4667 8.44972C64.0667 4.18305 56.6 0.716386 49.8 0.716386C36.3333 0.716386 29 8.71639 29 23.5164C29 36.5831 35.8 48.7164 52.6 65.6497C60.0667 73.2497 67.1333 79.3831 68.4667 79.3831C69.6667 79.3831 76.8667 73.2497 84.4667 65.6497C101.267 48.9831 108.2 36.8497 108.333 23.6497C108.467 6.71639 96.4667 -3.28361 81.2667 0.983053Z" fill="url(#paint0_radial_42_18)"/>
<path d="M119.333 76.3462C109.6 78.6129 98.6667 82.8795 91.0667 87.2795C86.5333 89.9462 83.7333 90.4795 75.6 90.4795C64 90.4795 58.6667 93.4129 58.6667 99.6796C58.6667 107.146 67.2 111.68 81.0667 111.946C92.4 112.08 94.6667 112.746 94.6667 115.813C94.6667 118.746 92.1333 119.813 84.5333 119.813C72.5333 119.813 48.5333 109.013 25.2 93.0129C18.9333 88.6129 12.5333 85.1462 10.9333 85.1462C9.46667 85.1462 6.4 86.7462 4.13333 88.6129C0.666667 91.4129 0 93.0129 0 97.6796C0 102.213 0.8 104.08 4.26667 107.413C13.0667 115.68 48.2667 136.88 74.8 149.68C85.8667 155.146 88.6667 155.946 96.4 155.946C101.2 156.08 108.667 155.013 112.8 153.813C125.067 150.213 148.667 137.813 156.4 130.746C175.067 113.813 190 107.013 221.733 101.013C228 99.9462 229.333 99.1462 229.333 97.0129C229.333 91.9462 203.333 82.7462 175.333 77.8129C158.133 74.7462 129.333 74.0795 119.333 76.3462Z" fill="url(#paint1_radial_42_18)"/>
<defs>
<radialGradient id="paint0_radial_42_18" cx="0" cy="0" r="1" gradientUnits="userSpaceOnUse" gradientTransform="translate(68.6672 39.6915) rotate(90) scale(39.6915 39.6672)">
<stop stop-color="#726CCA"/>
<stop offset="1" stop-color="#4F46E5"/>
</radialGradient>
<radialGradient id="paint1_radial_42_18" cx="0" cy="0" r="1" gradientUnits="userSpaceOnUse" gradientTransform="translate(114.667 115.479) rotate(90) scale(40.4787 114.667)">
<stop stop-color="#726CCA"/>
<stop offset="1" stop-color="#4F46E5"/>
</radialGradient>
</defs>
</svg>
